<svg width="34px" height="32px" viewBox="0 0 34 32" version="1.1" xmlns="http://www.w3.org/2000/svg" xmlns:xlink="http://www.w3.org/1999/xlink">
    <g id="Symbols" stroke="none" stroke-width="1" fill="none" fill-rule="evenodd">
        <g id="Footer" transform="translate(-1135.000000, -129.000000)" fill="#BDBDBD">
            <g id="Group-32">
                <g transform="translate(1135.000000, 70.000000)">
                    <g id="Group-31" transform="translate(0.000000, 58.000000)">
                        <g id="Group-4" transform="translate(0.000000, 1.000000)">
                            <path d="M21.9283,6.3241 L18.2493,6.3241 C18.2493,6.3241 14.5703,6.3241 14.5703,9.2371 L14.5703,13.6831 L11.6573,13.6831 L11.6573,17.4391 L14.5703,17.4391 L14.5703,26.1781 L18.2493,26.1781 L18.2493,17.3621 L21.9283,17.3621 L21.9283,13.7601 L18.2493,13.7601 L18.2493,10.8461 C18.2493,10.8461 18.0963,10.0041 19.1693,10.0041 C20.4723,10.0811 21.9283,10.0041 21.9283,10.0041 L21.9283,6.3241 Z" id="Fill-1"></path>
                            <path d="M17.8112,31.3573 C15.5082,31.3573 13.2002,30.8453 11.0782,29.8013 C10.6852,29.6073 10.5232,29.1323 10.7172,28.7403 C10.9102,28.3483 11.3842,28.1863 11.7772,28.3783 C16.4762,30.6913 22.1942,30.0933 26.3472,26.8553 C29.2532,24.5793 31.0942,21.3173 31.5282,17.6703 C31.9632,14.0273 30.9452,10.4163 28.6632,7.5033 C23.9862,1.5323 15.3042,0.4913 9.3102,5.1853 C4.8172,8.7513 2.9662,14.5543 4.5972,19.9703 C4.7242,20.3883 4.4862,20.8313 4.0672,20.9573 C3.6502,21.0843 3.2062,20.8463 3.0802,20.4263 C1.2602,14.3863 3.3202,7.9163 8.3292,3.9413 C15.0142,-1.2957 24.6952,-0.1347 29.9112,6.5263 C32.4532,9.7713 33.5862,13.7953 33.1022,17.8583 C32.6172,21.9263 30.5642,25.5653 27.3232,28.1033 C24.5682,30.2523 21.1952,31.3573 17.8112,31.3573" id="Fill-3"></path>
                            <path d="M0.1595,21.3485 L5.2185,26.9435 C5.3715,27.0965 5.6025,27.1735 5.8325,27.0965 L5.9085,27.0965 L5.9855,27.0965 C6.5215,26.9435 6.5985,26.5605 6.5985,26.2535 L6.5215,18.8185 C6.5215,18.3585 6.0615,18.0525 5.6025,18.2055 L5.3715,18.2825 C5.1415,18.3585 4.9885,18.6645 4.9885,18.8955 L4.9885,20.1215 C4.9885,20.4275 4.8355,20.6585 4.6055,20.7355 L2.9185,21.5015 C2.6885,21.5775 2.3825,21.5015 2.2285,21.3485 L1.3865,20.4275 C1.2335,20.1995 0.9265,20.1215 0.6965,20.2755 L0.4655,20.3515 C0.0055,20.4275 -0.1465,20.9645 0.1595,21.3485" id="Fill-5"></path>
                        </g>
                    </g>
                </g>
            </g>
        </g>
    </g>
</svg>