
<svg width="32px" height="31px" viewBox="0 0 32 31" version="1.1" xmlns="http://www.w3.org/2000/svg" xmlns:xlink="http://www.w3.org/1999/xlink">
    <defs>
        <polygon id="path-1" points="0.520520003 0.487042136 31.1215821 0.487042136 31.1215821 31 0.520520003 31"></polygon>
    </defs>
    <g id="Symbols" stroke="none" stroke-width="1" fill="none" fill-rule="evenodd">
        <g id="Footer" transform="translate(-1225.000000, -130.000000)">
            <g id="Group-32">
                <g transform="translate(1135.000000, 70.000000)">
                    <g id="Group-31" transform="translate(0.000000, 58.000000)">
                        <g id="Group-16" transform="translate(90.000000, 1.816000)">
                            <g id="Group-2">
                                <mask id="mask-2" fill="white">
                                    <use xlink:href="#path-1"></use>
                                </mask>
                                <g id="Clip-15"></g>
                                <path d="M15.8129,31.0003 C13.5229,31.0003 11.2289,30.4903 9.1189,29.4533 C8.7259,29.2603 8.5649,28.7843 8.7579,28.3933 C8.9509,28.0003 9.4259,27.8383 9.8179,28.0313 C14.4859,30.3283 20.1679,29.7343 24.2919,26.5173 C27.1789,24.2573 29.0079,21.0173 29.4389,17.3943 C29.8709,13.7743 28.8609,10.1883 26.5939,7.2933 C21.9479,1.3613 13.3229,0.3283 7.3679,4.9903 C2.9049,8.5323 1.0659,14.2993 2.6869,19.6773 C2.8129,20.0973 2.5759,20.5383 2.1569,20.6643 C1.7389,20.7923 1.2959,20.5553 1.1699,20.1353 C-0.6401,14.1313 1.4079,7.6973 6.3869,3.7463 C13.0349,-1.4587 22.6569,-0.3047 27.8419,6.3163 C30.3679,9.5423 31.4939,13.5433 31.0129,17.5823 C30.5309,21.6263 28.4909,25.2423 25.2679,27.7663 C22.5299,29.9013 19.1769,31.0003 15.8129,31.0003" id="Fill-14" fill="#C5BFD3" mask="url(#mask-2)"></path>
                                <path d="M12.5116,8.2679 C10.6176,8.2679 9.0766,9.8089 9.0766,11.7029 L9.0766,20.0349 C9.0766,21.9279 10.6176,23.4699 12.5116,23.4699 L19.9086,23.4699 C21.8026,23.4699 23.3446,21.9279 23.3446,20.0349 L23.3446,11.7029 C23.3446,9.8089 21.8026,8.2679 19.9086,8.2679 L12.5116,8.2679 Z M19.5236,25.0549 L12.8966,25.0549 C9.8886,25.0549 7.4426,22.6079 7.4426,19.6009 L7.4426,12.1369 C7.4426,9.1289 9.8886,6.6829 12.8966,6.6829 L19.5236,6.6829 C22.5316,6.6829 24.9786,9.1289 24.9786,12.1369 L24.9786,19.6009 C24.9786,22.6079 22.5316,25.0549 19.5236,25.0549 L19.5236,25.0549 Z" id="Fill-19" fill="#BDBDBD" mask="url(#mask-2)"></path>
                                <path d="M15.9442,11.9075 C18.0902,11.9075 19.8282,13.6465 19.8282,15.7925 C19.8282,17.9375 18.0902,19.6785 15.9442,19.6785 C13.7982,19.6785 12.0592,17.9375 12.0592,15.7925 C12.0592,13.6465 13.7982,11.9075 15.9442,11.9075" id="Fill-21" fill="#BDBDBD" mask="url(#mask-2)"></path>
                                <path d="M20.2096,10.765 C20.7566,10.765 21.1996,11.209 21.1996,11.756 C21.1996,12.302 20.7566,12.746 20.2096,12.746 C19.6616,12.746 19.2196,12.302 19.2196,11.756 C19.2196,11.209 19.6616,10.765 20.2096,10.765" id="Fill-23" fill="#BDBDBD" mask="url(#mask-2)"></path>
                            </g>
                        </g>
                    </g>
                </g>
            </g>
        </g>
    </g>
</svg>