
<svg width="32px" height="31px" viewBox="0 0 32 31" version="1.1" xmlns="http://www.w3.org/2000/svg" xmlns:xlink="http://www.w3.org/1999/xlink">
    <defs>
        <polygon id="path-1" points="0.612362541 0.184 31.6680485 0.184 31.6680485 31.1741 0.612362541 31.1741"></polygon>
    </defs>
    <g id="Symbols" stroke="none" stroke-width="1" fill="none" fill-rule="evenodd">
        <g id="Footer" transform="translate(-1181.000000, -129.000000)">
            <g id="Group-32">
                <g transform="translate(1135.000000, 70.000000)">
                    <g id="Group-31" transform="translate(0.000000, 58.000000)">
                        <g id="Group-9" transform="translate(46.000000, 0.816000)">
                            <g id="Group-3">
                                <mask id="mask-2" fill="white">
                                    <use xlink:href="#path-1"></use>
                                </mask>
                                <g id="Clip-8"></g>
                                <path d="M16.1315,31.1741 C13.8085,31.1741 11.4795,30.6581 9.3395,29.6061 C8.9465,29.4111 8.7855,28.9371 8.9785,28.5441 C9.1715,28.1531 9.6455,27.9901 10.0385,28.1831 C14.7845,30.5181 20.5585,29.9141 24.7525,26.6441 C27.6865,24.3461 29.5445,21.0521 29.9845,17.3681 C30.4225,13.6901 29.3955,10.0431 27.0915,7.1021 C24.7915,4.1651 21.4975,2.3071 17.8155,1.8681 C14.1365,1.4261 10.4885,2.4571 7.5475,4.7611 C3.0095,8.3621 1.1405,14.2231 2.7885,19.6901 C2.9155,20.1101 2.6785,20.5511 2.2595,20.6771 C1.8415,20.8041 1.3975,20.5681 1.2715,20.1481 C-0.5655,14.0551 1.5125,7.5271 6.5665,3.5171 C9.8435,0.9481 13.9035,-0.1939 18.0025,0.2941 C22.1075,0.7831 25.7775,2.8551 28.3385,6.1251 C30.9025,9.3991 32.0465,13.4581 31.5575,17.5571 C31.0685,21.6601 28.9975,25.3311 25.7275,27.8921 C22.9485,30.0601 19.5455,31.1741 16.1315,31.1741" id="Fill-7" fill="#BDBDBD" mask="url(#mask-2)"></path>
                                <path d="M8.6053,9.9388 C9.0703,10.6348 10.1533,11.8738 11.9323,12.8018 C13.7123,13.7308 15.2593,13.8848 16.1103,13.8848 C16.0323,13.6528 15.8003,12.3368 16.5743,11.0998 C17.2703,9.9388 18.3533,9.5518 18.6633,9.4748 C18.8953,9.3978 19.5913,9.1658 20.4423,9.3208 C21.5263,9.5518 22.1453,10.1708 22.3763,10.4038 C22.6863,10.4038 23.1493,10.3268 23.6143,10.0938 C24.0783,9.9388 24.4653,9.7078 24.6973,9.5518 C24.4653,10.0938 24.2323,10.4808 24.0013,10.7128 C23.5363,11.2538 22.9953,11.7188 22.9953,11.7188 L25.0843,11.1778 L24.6203,11.8738 L23.3043,12.9568 C23.3043,13.8848 23.3043,15.3548 22.6863,16.9798 C21.9133,19.0688 20.6743,20.4598 19.9783,21.1578 C19.2813,21.7758 17.1923,23.4778 13.9443,23.8658 C10.6163,24.1738 8.1413,22.8598 7.3683,22.3948 C8.0643,22.4718 9.1473,22.3948 10.3843,22.0078 C11.3913,21.6218 12.1643,21.1578 12.6283,20.7708 C12.2423,20.7708 11.9323,20.6938 11.7773,20.6938 C11.6223,20.6158 11.5463,20.6158 10.7713,20.2288 C10.5403,20.0748 10.1533,19.8418 9.8433,19.3778 C9.5343,18.9918 9.3793,18.5268 9.2243,18.2948 L10.9273,18.2948 L10.9273,18.1398 C10.6953,18.0628 10.3073,17.9858 9.9983,17.8308 C9.5343,17.5988 9.1473,17.2898 8.9153,17.0568 C8.7603,16.9018 8.4513,16.5928 8.2183,16.1278 C7.9873,15.5098 7.9873,14.8898 8.0643,14.6588 C8.2183,14.7358 8.4513,14.8898 8.7603,14.9668 C9.1473,15.0448 9.4573,15.0448 9.6893,15.0448 C9.3793,14.8138 8.9923,14.5038 8.6053,13.8848 C8.2183,13.2658 8.0643,12.6468 8.0643,12.3368 C8.0643,12.0288 8.0643,11.7188 8.1413,11.2538 C8.2963,10.5578 8.4513,10.2498 8.6053,9.9388" id="Fill-12" fill="#BDBDBD" mask="url(#mask-2)"></path>
                            </g>
                        </g>
                    </g>
                </g>
            </g>
        </g>
    </g>
</svg>